<svg version="1.1" id="Layer_1" xmlns="http://www.w3.org/2000/svg" xmlns:xlink="http://www.w3.org/1999/xlink" x="0px" y="0px"
	 width="100%" viewBox="0 0 577 433" enable-background="new 0 0 577 433" xml:space="preserve">
<path fill="#000000" opacity="1.000000" stroke="none" 
	d="
M310.000000,434.000000 
	C206.666687,434.000000 103.833382,434.000000 1.000055,434.000000 
	C1.000037,289.666718 1.000037,145.333450 1.000018,1.000133 
	C193.333237,1.000088 385.666473,1.000088 577.999756,1.000044 
	C577.999878,145.333191 577.999878,289.666382 577.999939,433.999786 
	C488.833344,434.000000 399.666656,434.000000 310.000000,434.000000 
M299.532288,361.999390 
	C302.628326,361.671570 305.720032,361.294189 308.821106,361.024231 
	C324.947174,359.620392 339.891541,354.250183 354.308807,347.272369 
	C370.146027,339.607300 383.467682,328.613708 395.615784,315.974731 
	C409.058075,301.989319 418.704529,285.743256 425.661682,267.780823 
	C431.922943,251.615128 434.297607,234.625076 434.816650,217.499420 
	C435.081787,208.752884 433.530365,199.837418 431.886566,191.171555 
	C428.840179,175.111771 423.340698,159.851807 414.961060,145.715012 
	C404.439575,127.964996 390.767914,113.077248 374.264923,100.743683 
	C354.010101,85.606163 330.941223,77.434837 306.150848,74.159920 
	C297.927399,73.073570 289.435089,73.851135 281.072083,74.047363 
	C274.606110,74.199097 267.963104,73.931198 261.724243,75.315987 
	C242.298950,79.627647 223.893356,86.708443 207.451935,98.207253 
	C188.186508,111.681099 172.259674,128.397415 161.428970,149.286484 
	C149.480133,172.332108 143.202591,196.819702 144.811920,223.179291 
	C145.435089,233.386703 146.511871,243.354858 148.935272,253.275604 
	C154.214478,274.886993 164.105759,294.259674 178.576782,310.901459 
	C197.863190,333.081024 221.347000,349.324005 250.149048,357.098541 
	C266.046051,361.389618 282.133606,363.409729 299.532288,361.999390 
z"/>
<path fill="#FA4339" opacity="1.000000" stroke="none" 
	d="
M299.060211,361.999390 
	C282.133606,363.409729 266.046051,361.389618 250.149048,357.098541 
	C221.347000,349.324005 197.863190,333.081024 178.576782,310.901459 
	C164.105759,294.259674 154.214478,274.886993 148.935272,253.275604 
	C146.511871,243.354858 145.435089,233.386703 144.811920,223.179291 
	C143.202591,196.819702 149.480133,172.332108 161.428970,149.286484 
	C172.259674,128.397415 188.186508,111.681099 207.451935,98.207253 
	C223.893356,86.708443 242.298950,79.627647 261.724243,75.315987 
	C267.963104,73.931198 274.606110,74.199097 281.072083,74.047363 
	C289.435089,73.851135 297.927399,73.073570 306.150848,74.159920 
	C330.941223,77.434837 354.010101,85.606163 374.264923,100.743683 
	C390.767914,113.077248 404.439575,127.964996 414.961060,145.715012 
	C423.340698,159.851807 428.840179,175.111771 431.886566,191.171555 
	C433.530365,199.837418 435.081787,208.752884 434.816650,217.499420 
	C434.297607,234.625076 431.922943,251.615128 425.661682,267.780823 
	C418.704529,285.743256 409.058075,301.989319 395.615784,315.974731 
	C383.467682,328.613708 370.146027,339.607300 354.308807,347.272369 
	C339.891541,354.250183 324.947174,359.620392 308.821106,361.024231 
	C305.720032,361.294189 302.628326,361.671570 299.060211,361.999390 
M230.223175,244.451721 
	C230.156464,258.793854 230.080475,273.135956 230.058044,287.478149 
	C230.057175,288.031036 230.571060,288.584686 231.296036,289.731873 
	C237.923355,291.791656 244.428894,294.516846 251.206207,295.757080 
	C261.685333,297.674774 272.322174,298.902039 282.944214,299.819305 
	C293.519348,300.732513 303.577362,299.432587 313.188568,293.655334 
	C322.008209,288.353912 329.231812,281.532440 336.103027,274.225891 
	C342.312988,267.622467 346.947815,259.855652 347.925446,250.628159 
	C349.249176,238.133865 342.456879,229.269791 332.791321,223.207840 
	C318.907532,214.500336 304.100342,207.279190 290.003418,198.892288 
	C281.643188,193.918442 273.132355,188.739746 266.062805,182.174164 
	C257.818176,174.517273 259.263611,163.196121 266.413422,156.305542 
	C275.136963,147.898285 291.798676,150.075089 299.740417,154.356613 
	C313.849030,161.962799 323.653961,173.843262 331.312469,187.669647 
	C334.056244,192.623123 336.171570,193.250351 342.918274,190.559387 
	C342.935303,176.997818 342.952301,163.436264 342.666687,149.210587 
	C340.966858,147.558762 339.513275,144.907471 337.527008,144.418076 
	C325.064636,141.347397 312.596893,137.768158 299.906799,136.315735 
	C289.300568,135.101852 278.113495,134.441940 268.112457,140.456543 
	C255.101898,148.281082 244.221497,158.230423 236.814301,171.641418 
	C230.444305,183.174530 230.819885,199.567657 242.144028,208.411194 
	C250.312088,214.789993 259.050720,220.525909 267.942993,225.869385 
	C281.817841,234.206955 296.156586,241.770493 310.068634,250.048798 
	C318.492462,255.061371 322.528564,266.219574 318.583099,272.832184 
	C314.122040,280.308868 307.295380,284.543213 298.510315,284.967194 
	C276.987122,286.005859 262.178406,274.041534 248.980820,259.069458 
	C243.769363,253.157318 241.945190,243.171051 230.223175,244.451721 
z"/>
<path fill="#000000" opacity="1.000000" stroke="none" 
	d="
M342.163513,190.990570 
	C336.171570,193.250351 334.056244,192.623123 331.312469,187.669647 
	C323.653961,173.843262 313.849030,161.962799 299.740417,154.356613 
	C291.798676,150.075089 275.136963,147.898285 266.413422,156.305542 
	C259.263611,163.196121 257.818176,174.517273 266.062805,182.174164 
	C273.132355,188.739746 281.643188,193.918442 290.003418,198.892288 
	C304.100342,207.279190 318.907532,214.500336 332.791321,223.207840 
	C342.456879,229.269791 349.249176,238.133865 347.925446,250.628159 
	C346.947815,259.855652 342.312988,267.622467 336.103027,274.225891 
	C329.231812,281.532440 322.008209,288.353912 313.188568,293.655334 
	C303.577362,299.432587 293.519348,300.732513 282.944214,299.819305 
	C272.322174,298.902039 261.685333,297.674774 251.206207,295.757080 
	C244.428894,294.516846 237.923355,291.791656 231.141937,288.956726 
	C230.998047,273.497864 231.008255,258.814117 231.018463,244.130402 
	C241.945190,243.171051 243.769363,253.157318 248.980820,259.069458 
	C262.178406,274.041534 276.987122,286.005859 298.510315,284.967194 
	C307.295380,284.543213 314.122040,280.308868 318.583099,272.832184 
	C322.528564,266.219574 318.492462,255.061371 310.068634,250.048798 
	C296.156586,241.770493 281.817841,234.206955 267.942993,225.869385 
	C259.050720,220.525909 250.312088,214.789993 242.144028,208.411194 
	C230.819885,199.567657 230.444305,183.174530 236.814301,171.641418 
	C244.221497,158.230423 255.101898,148.281082 268.112457,140.456543 
	C278.113495,134.441940 289.300568,135.101852 299.906799,136.315735 
	C312.596893,137.768158 325.064636,141.347397 337.527008,144.418076 
	C339.513275,144.907471 340.966858,147.558762 342.431946,149.760437 
	C342.185944,163.870377 342.174713,177.430466 342.163513,190.990570 
z"/>
<path fill="#FDF5EE" opacity="1.000000" stroke="none" 
	d="
M230.620819,244.291061 
	C231.008255,258.814117 230.998047,273.497864 230.916458,288.659790 
	C230.571060,288.584686 230.057175,288.031036 230.058044,287.478149 
	C230.080475,273.135956 230.156464,258.793854 230.620819,244.291061 
z"/>
<path fill="#FDF8F1" opacity="1.000000" stroke="none" 
	d="
M342.540894,190.774979 
	C342.174713,177.430466 342.185944,163.870377 342.583252,150.092484 
	C342.952301,163.436264 342.935303,176.997818 342.540894,190.774979 
z"/>
</svg>